<svg width="85" height="64" viewBox="0 0 85 64" fill="none" xmlns="http://www.w3.org/2000/svg">
<path d="M54.4229 59.9094C54.3 58.6797 52.342 56.2959 50.1806 54.7446C46.5578 51.954 46.4963 51.3392 49.5564 49.9346C54.3996 47.7307 56.9346 49.1969 55.894 53.6002C55.1987 55.7237 55.3216 56.9534 56.1162 56.3008C57.8378 54.8866 58.5002 41.9228 56.9774 40.0688C55.3457 38.0823 43.5358 41.7948 41.4074 44.8737C39.3878 48.0851 37.0609 48.2222 28.5193 45.9234C24.3809 44.6652 22.6546 43.6436 24.2816 43.1943C25.6674 42.7214 33.4618 38.9805 41.7624 35.0456C49.9541 30.9784 57.304 28.0462 58.0039 28.3584C61.4802 30.1604 83.4253 36.0871 84.2199 35.4344C84.7496 34.9993 84.7828 33.4196 84.4186 32.1663C83.8606 30.4069 83.137 30.3359 82.4038 31.6034C81.0937 33.7884 65.6517 29.8389 65.8882 27.4268C65.9592 26.7032 70.0219 26.2492 75.1109 26.5047C79.9588 26.7366 84.2863 26.0651 84.4897 25.2327C84.9343 24.4239 81.5244 19.4625 77.0409 14.2741C71.0344 7.23155 68.5467 5.2829 66.7636 6.08216C64.6069 6.96655 64.7157 7.09898 67.2839 6.98553C69.7433 6.73965 70.6372 7.55789 71.4884 11.2943C72.3869 14.5483 74.1274 16.6672 77.5799 18.7104C80.0913 20.4179 82.3378 22.3429 82.1344 23.1753C81.9689 24.8637 64.966 24.414 64.1667 22.631C63.9965 21.8837 62.7668 22.0066 61.7073 22.8768C58.2641 25.7051 57.848 22.4984 60.7521 15.2338C63.5238 8.07798 62.7767 2.03827 59.012 0.694984C55.006 -0.671959 53.3742 3.55153 53.951 15.0539C54.4379 23.7469 53.8656 27.1002 51.7325 27.7434C50.0819 28.4339 43.3232 31.5458 36.5409 34.8989C28.8789 38.5311 19.5757 41.5152 12.1739 42.4941C5.62809 43.4351 0.155923 44.6032 0.0849609 45.3268C-0.0947784 45.918 3.81187 45.8141 8.5131 45.0574C14.2028 44.1542 20.8242 44.9253 28.3537 47.6119C38.8391 51.1971 39.6242 51.8829 42.1071 57.6058C44.3488 63.305 45.1339 63.9908 48.6906 63.7308C53.4533 63.589 54.7776 62.5012 54.4229 59.9094ZM44.6895 58.5896C44.5902 57.1187 44.1409 55.4917 43.7058 54.962C43.3795 54.5647 43.0153 53.3114 43.1099 52.3465C43.337 51.2729 45.4747 53.0655 48.0854 56.2438C52.5452 61.6735 52.6304 62.0471 49.0122 61.6923C46.6002 61.4558 45.0063 60.3254 44.6895 58.5896ZM47.7072 47.6832L42.3296 47.8865L46.6289 45.0205C48.9653 43.5449 51.4342 41.9605 52.0727 41.6578C54.0119 40.5086 56.6367 44.7842 54.7827 46.3071C53.9881 46.9598 50.7578 47.6171 47.7072 47.6832ZM55.928 14.7607C54.6984 8.67371 56.3019 2.25569 59.0166 3.13073C60.4166 3.75506 60.7712 6.34689 60.0192 10.2914C58.3211 17.6742 56.9258 19.4856 55.928 14.7607Z" fill="#004CAB"/>
</svg>
