<svg width="582" height="582" viewBox="0 0 582 582" fill="none" xmlns="http://www.w3.org/2000/svg">
<path d="M265.586 90.21C241.724 93.508 224.458 98.746 203.7 108.64C164.318 127.846 128.622 164.318 110.386 204.864C107.282 211.654 104.76 218.25 104.76 219.414C104.76 220.578 101.85 224.846 98.164 228.92C90.404 237.65 83.42 255.11 83.42 266.362C83.42 275.868 88.27 286.538 94.478 290.612C98.358 293.134 98.94 292.94 100.104 290.03C100.88 288.09 100.298 286.15 98.94 285.18C97 284.016 96.612 279.748 97.582 268.302C99.91 236.486 105.148 225.234 119.892 221.354C127.652 219.026 132.502 220.966 136.188 227.562C138.71 232.024 139.098 271.406 136.77 285.18C135.606 291.97 135.412 292.164 122.802 294.492C115.818 295.85 100.492 301.282 88.852 306.714C62.856 318.936 55.484 320.1 47.724 314.086C33.95 303.222 34.726 287.702 49.276 281.106C56.454 277.808 56.648 277.42 51.992 277.42C45.202 277.42 35.696 285.568 34.144 292.94C32.592 300.894 37.83 313.31 45.008 318.354C54.32 324.95 66.154 323.786 88.658 313.504C105.924 305.938 127.458 298.76 133.666 298.76C135.024 298.76 135.8 304.192 135.8 313.698C135.8 331.546 138.322 342.022 143.754 347.066C156.558 358.9 174.406 347.648 187.986 319.712L195.164 304.774L203.312 309.624C208.938 312.922 211.46 315.832 211.46 318.742C211.46 324.756 218.25 335.038 223.1 336.59C231.636 339.306 240.56 335.62 250.842 325.338C256.468 319.712 262.094 313.504 263.452 311.37C265.392 308.072 265.78 309.818 265.392 323.01C264.81 338.142 265.004 338.53 269.466 338.53C273.54 338.53 274.51 336.784 278.584 322.234C287.702 291 302.058 265.78 310.788 265.78C315.832 265.78 316.996 273.734 314.28 290.612C310.788 311.758 311.176 328.636 315.056 334.65C318.742 340.276 328.83 343.574 335.62 341.052C342.604 338.53 347.066 333.874 352.304 323.98L356.766 315.25L356.96 323.01C357.154 331.546 359.482 335.62 366.078 339.112C376.554 344.738 383.538 340.664 392.462 323.01L397.506 313.31L397.7 324.95C397.894 351.528 416.518 359.87 430.098 339.694C432.426 336.202 437.082 326.114 440.38 317.578C446.976 299.536 453.96 285.18 455.9 285.18C457.258 285.18 463.66 311.176 463.66 316.608C463.66 318.354 460.75 321.652 457.064 323.98C447.558 329.606 438.44 340.664 438.44 346.29C438.44 357.736 450.856 360.258 463.078 351.334C471.42 345.32 477.046 335.232 478.598 323.786C479.18 319.518 480.732 316.22 482.09 316.22C484.03 316.22 484.03 318.742 481.896 328.248C465.988 403.132 412.832 459.004 337.948 479.568C317.384 485.194 267.72 485.582 247.35 480.344C182.166 463.272 133.86 420.98 110.192 360.064C103.984 344.156 99.328 337.56 102.044 348.618C106.506 366.854 123.19 397.894 138.128 415.548C146.47 425.636 146.47 425.83 138.516 422.92C135.606 421.756 124.354 420.592 113.684 420.204C102.82 419.816 90.21 419.04 85.36 418.264C79.152 417.488 78.182 417.682 82.45 418.846L88.27 420.398L82.644 421.95C78.764 423.114 76.63 422.726 76.048 421.368C75.66 420.01 74.69 419.428 73.72 420.01C71.78 421.174 75.854 430.292 79.152 431.65C80.316 432.038 84.39 430.098 87.882 426.994L94.09 421.562L115.43 422.92C140.65 424.666 147.052 426.994 161.02 439.41C232.412 502.848 340.47 504.982 415.742 444.26C451.244 415.742 479.762 367.242 485.97 324.95C487.328 316.996 488.88 313.892 495.864 307.296C500.52 303.028 504.4 297.79 504.4 295.85C504.4 292.94 502.848 293.716 496.64 299.73L488.88 307.296V298.178C488.88 293.134 488.104 289.06 486.94 289.06C485.97 289.06 485 293.716 485 299.536C485 306.908 484.224 310.4 482.09 311.176C480.15 311.952 478.792 310.012 477.434 304.968C476.27 300.894 472.584 292.94 469.092 287.12L462.69 276.45L466.57 268.69C468.704 264.422 470.644 260.542 470.838 260.154C471.032 259.766 481.702 260.93 494.312 262.87C528.65 267.914 541.842 264.616 548.244 249.096C556.78 228.726 543.006 207.192 525.158 213.012L518.95 214.952L527.098 215.146C551.154 215.728 554.258 248.902 530.978 257.826C524.188 260.348 520.696 260.154 492.178 255.498C461.914 250.454 459.974 250.454 443.29 253.17C417.488 257.244 395.76 265.586 380.628 276.838C375.778 280.524 373.644 281.106 371.704 279.554C367.242 275.868 363.362 279.166 360.84 288.672C357.736 300.7 344.544 328.054 340.082 332.128C334.262 337.366 329.412 337.172 326.114 331.352C323.592 326.89 323.592 323.398 325.532 304.192C328.83 272.958 324.562 261.124 310.012 261.512C301.67 261.706 291.388 272.958 284.404 289.642C279.748 300.506 278.39 297.984 282.27 285.762C283.24 282.658 282.658 281.106 279.748 279.554C273.734 276.256 269.854 278.972 267.72 287.896C264.422 300.7 259.766 308.654 247.932 320.488C236.098 332.516 228.92 335.038 225.04 328.054C220.772 319.906 222.712 314.086 233.77 302.446C243.47 292.358 250.26 281.106 250.26 275.674C250.26 271.794 241.724 265.78 236.098 265.78C224.07 265.78 216.892 274.51 211.848 294.686L208.55 308.266L202.148 304.192C198.074 301.67 196.134 299.148 196.91 297.208C199.044 291.388 203.7 261.124 203.7 251.812C203.7 239.202 200.402 226.398 195.746 221.354C191.09 216.504 189.344 216.31 185.27 220.384C182.36 223.294 182.36 223.876 185.852 227.756C187.986 229.89 190.702 233.77 191.866 236.098C194.776 241.724 194.388 269.66 191.284 284.21C189.344 293.91 188.18 295.85 185.076 295.268C183.136 295.074 174.794 293.91 166.646 292.552L151.902 290.224L152.872 269.66C153.454 254.14 153.066 246.574 150.544 238.232C145.112 219.22 130.368 210.878 113.684 217.28C110.968 218.25 108.64 218.638 108.64 218.25C108.64 215.146 119.504 193.806 127.264 181.972C147.246 150.738 173.436 127.458 206.222 111.55C264.616 83.42 334.068 86.33 389.746 119.31C427.964 142.008 463.466 186.434 475.494 226.398C476.658 231.054 478.598 234.74 479.568 234.74C482.09 234.74 481.508 231.83 476.27 217.862C443.678 131.338 355.02 77.6 265.586 90.21ZM97.194 247.544C96.224 251.812 94.672 260.736 93.896 267.72C92.732 278.196 92.344 279.36 90.792 275.48C88.464 269.466 90.016 257.05 94.284 246.574C98.164 236.68 99.91 237.456 97.194 247.544ZM451.632 269.854C453.766 278.972 453.572 279.942 449.304 285.762C446.782 289.254 441.156 300.894 436.888 311.952C428.74 332.71 420.786 345.32 415.936 345.32C409.146 345.32 407.788 329.606 411.474 294.298C413.22 278.002 413.22 272.958 411.28 270.63C409.922 269.078 409.534 267.72 410.504 267.526C411.474 267.526 418.458 265.78 425.83 263.84C447.752 258.02 449.11 258.214 451.632 269.854ZM465.6 261.318C465.406 262.288 464.242 265.004 462.69 267.72C459.974 272.764 460.168 272.958 456.87 262.87C456.288 260.736 457.452 259.96 460.75 259.96C463.466 259.96 465.6 260.542 465.6 261.318ZM399.64 290.806C388.194 323.98 380.24 337.56 373.838 335.038C369.57 333.486 368.6 324.368 370.928 306.132C372.868 290.418 373.45 288.866 379.076 284.598C384.896 280.136 403.132 269.854 405.654 269.66C406.43 269.66 403.714 279.166 399.64 290.806ZM243.664 274.316C245.216 278.39 239.784 288.672 230.666 298.76C221.936 308.46 221.936 308.266 227.174 288.866C230.472 276.062 240.754 266.944 243.664 274.316ZM144.918 293.328C144.53 295.656 143.172 297.984 142.008 298.372C139.486 299.148 139.098 296.82 140.844 292.164C142.59 287.508 145.5 288.478 144.918 293.328ZM180.032 300.118C183.33 300.7 186.24 302.252 186.24 303.61C186.24 308.848 170.332 337.56 164.706 342.216C149.768 354.826 145.306 345.514 148.798 309.624L149.962 296.432L161.796 297.596C168.392 298.372 176.54 299.342 180.032 300.118ZM276.45 300.7C277.032 302.64 276.45 306.714 274.898 309.624C272.182 314.862 271.988 314.862 269.854 310.788C268.496 308.072 268.302 305.162 269.66 301.864C271.794 295.85 274.704 295.462 276.45 300.7ZM473.36 321.07C472.778 324.174 471.42 326.502 470.45 325.92C469.286 325.338 468.898 323.98 469.286 323.01C469.674 321.846 469.868 317.19 469.868 312.34V303.61L472.196 309.43C473.554 312.534 474.136 317.772 473.36 321.07ZM463.66 327.86C463.66 331.934 457.646 344.35 453.572 348.618C447.946 354.632 444.26 354.244 444.26 347.648C444.26 343.574 446.588 339.694 452.408 334.068C460.556 325.92 463.66 324.174 463.66 327.86Z" fill="#004CAB"/>
<path d="M289.448 130.368C285.568 134.248 286.926 138.516 293.134 142.008C299.536 145.694 298.954 149.768 292.358 149.186C285.568 148.798 284.016 149.38 287.12 151.32C291.776 154.424 298.372 153.648 300.506 149.768C302.64 145.694 301.282 142.978 295.462 139.874C289.06 136.576 289.448 131.144 295.85 132.696C301.088 134.054 302.64 131.144 297.596 129.204C293.328 127.652 292.164 127.652 289.448 130.368Z" fill="#004CAB"/>
<path d="M270.242 140.068C270.63 149.38 270.242 150.35 266.362 150.932C261.512 151.708 258.02 145.5 258.02 136.576C258.02 134.054 257.244 131.92 256.08 131.92C251.036 131.92 256.468 152.484 261.9 154.23C267.138 155.782 272.958 153.842 274.316 149.962C276.062 145.888 273.54 129.98 271.406 129.98C270.436 129.98 270.048 134.636 270.242 140.068Z" fill="#004CAB"/>
<path d="M315.444 131.726C315.056 132.308 314.086 137.934 313.31 143.948C311.952 154.424 312.146 155.2 315.832 155.2C317.966 155.2 321.07 155.782 322.816 156.364C324.562 156.946 325.92 156.558 325.92 155.394C325.92 154.23 323.786 152.872 321.07 152.096C318.16 151.32 316.22 149.574 316.22 147.44C316.22 144.918 317.384 144.336 321.07 145.112C323.98 145.5 325.92 145.112 325.92 143.754C325.92 142.59 323.786 141.62 321.264 141.62C317.578 141.62 316.802 140.844 317.578 137.74C318.354 134.83 319.712 134.248 323.204 135.024C325.726 135.606 327.86 135.412 327.86 134.248C327.86 132.114 316.414 129.98 315.444 131.726Z" fill="#004CAB"/>
<path d="M485.97 143.56C485.388 144.53 482.672 145.5 479.956 145.5C477.24 145.5 474.718 146.858 474.136 148.41C473.36 149.962 471.614 151.32 470.062 151.32C464.048 151.32 468.704 158.11 476.658 160.826L484.612 163.736L485.388 175.57C485.776 182.166 485 191.866 483.836 197.104L481.896 206.61L479.568 199.82C478.404 196.134 476.852 189.15 476.076 184.3C475.106 177.316 474.524 176.346 473.166 179.45C472.002 182.748 471.614 182.554 471.614 177.704C471.42 173.048 471.032 172.466 468.51 174.6C464.242 178.092 465.018 182.166 470.062 184.494C474.524 186.434 477.046 193.806 481.314 217.28L482.478 224.07L482.866 216.31C483.448 198.462 493.148 180.42 501.878 180.42C504.206 180.42 506.534 179.644 507.116 178.674C507.892 177.704 506.34 177.316 504.012 177.898C499.744 178.674 499.744 178.674 504.4 175.57C508.862 172.66 509.056 172.66 504.982 173.63C501.684 174.6 500.52 174.018 500.52 171.69C500.52 169.362 501.49 168.78 504.012 169.75C506.146 170.526 506.728 170.332 505.37 168.974C504.206 167.81 501.102 166.646 498.58 166.452C494.118 165.87 493.73 166.452 493.73 174.6C493.73 186.046 490.432 191.672 488.686 183.33C485.776 169.944 486.94 162.184 492.76 155.2C498.774 148.41 500.132 143.56 496.446 143.56C495.476 143.56 494.894 144.336 495.476 145.306C496.058 146.276 494.894 149.186 492.566 151.514C489.074 155.588 488.686 155.588 489.85 152.29C493.148 142.978 493.148 141.62 490.238 141.62C488.492 141.62 486.552 142.396 485.97 143.56ZM487.91 150.738C484.03 160.244 483.642 160.244 479.18 156.17C473.942 151.32 474.33 147.44 479.956 147.44C482.672 147.44 485.388 146.47 485.97 145.5C489.074 140.456 490.626 144.336 487.91 150.738Z" fill="#004CAB"/>
<path d="M224.846 244.828C222.518 248.32 218.25 253.17 215.534 255.498C211.266 259.184 210.878 260.154 213.4 261.9C214.952 262.87 217.668 263.646 219.22 263.258C222.13 262.87 232.606 245.604 232.8 240.948C232.8 236.68 229.308 238.426 224.846 244.828Z" fill="#004CAB"/>
<path d="M237.65 243.858C239.396 251.23 244.634 260.154 248.708 262.676C251.424 264.228 252.782 264.034 255.304 261.512C258.214 258.602 258.214 258.214 254.334 256.274C252.006 254.916 247.932 250.454 245.41 246.38C239.59 237.262 235.71 236.098 237.65 243.858Z" fill="#004CAB"/>
<path d="M135.8 359.094C135.8 360.064 136.964 360.84 138.516 360.84C142.202 360.84 143.754 365.69 141.038 368.406C136.382 373.062 141.038 371.704 147.246 366.466C150.932 363.362 153.648 360.646 153.066 360.258C151.126 358.512 135.8 357.542 135.8 359.094Z" fill="#004CAB"/>
<path d="M428.158 364.138C427.382 364.72 426.8 367.048 426.8 368.988C426.8 372.674 433.396 374.032 435.53 370.54C436.306 369.376 437.664 368.988 438.634 369.764C439.798 370.346 439.604 372.092 438.052 374.032C435.918 376.554 435.918 376.748 438.44 375.972C439.992 375.584 441.544 373.256 441.932 370.928C442.514 367.824 441.544 366.66 438.634 366.66C436.5 366.66 434.172 367.436 433.59 368.6C431.456 372.092 428.546 370.54 429.71 366.66C430.874 362.78 430.486 361.81 428.158 364.138Z" fill="#004CAB"/>
<path d="M88.27 366.66C87.494 367.824 87.494 371.316 88.27 374.226C89.434 379.27 89.046 379.852 85.36 378.882C79.54 377.33 78.376 374.226 82.45 371.122C84.584 369.764 85.36 368.6 84.196 368.6C81.674 368.6 71.78 379.464 71.78 382.18C71.78 385.09 84.778 390.328 88.852 389.164C92.926 387.806 95.06 389.358 100.88 397.506C103.596 401.58 104.372 403.714 102.626 402.938C101.074 402.356 91.568 400.028 81.48 397.506C71.392 395.178 62.856 392.462 62.468 391.686C60.722 387.612 45.784 366.66 44.62 366.66C43.844 366.66 42.68 368.018 42.098 369.376C41.322 371.316 41.904 371.898 43.456 371.316C46.172 370.346 56.842 384.896 54.902 386.836C54.32 387.418 50.44 384.896 46.172 381.016C42.098 377.33 37.83 374.808 37.054 375.39C36.084 375.778 35.502 382.568 35.696 390.328C35.89 400.804 36.666 404.296 38.8 404.878C41.322 405.654 41.322 405.46 38.994 403.714C36.666 402.162 36.472 400.804 38.412 396.924C39.964 393.432 39.964 390.328 38.412 386.06C37.442 382.762 36.86 379.464 37.636 378.882C38.994 377.524 53.544 390.134 52.962 392.268C52.574 393.044 53.738 393.82 55.29 393.82C60.334 393.82 58.394 396.924 50.634 401.192C43.068 405.46 39.382 411.28 41.71 415.16C44.232 419.234 48.694 416.712 56.454 406.236C62.274 398.282 65.184 395.76 67.512 396.73C69.452 397.312 77.6 399.446 85.942 401.386C95.254 403.714 105.536 407.788 112.714 412.25C119.116 416.13 124.742 419.04 125.324 418.458C125.906 418.07 122.414 415.354 117.758 412.638C112.132 409.34 106.894 403.908 102.238 396.148C95.642 385.478 95.448 384.314 97.388 377.524C99.522 370.928 99.328 369.764 96.03 367.436C91.762 364.138 89.822 364.138 88.27 366.66ZM95.836 374.808C94.866 376.166 94.09 377.912 94.09 378.688C94.09 379.27 93.508 380.628 92.732 381.404C91.762 382.18 91.18 379.076 91.18 374.42C91.18 366.466 91.374 366.078 94.284 368.988C96.224 370.928 96.806 373.062 95.836 374.808ZM85.36 382.18L90.21 385.866L84.39 385.284C81.286 384.896 77.988 384.508 77.212 384.314C74.69 383.926 75.466 378.3 78.182 378.3C79.346 378.3 82.644 380.046 85.36 382.18ZM54.514 405.072C51.216 411.28 45.202 415.742 43.456 413.026C42.68 411.474 44.232 408.952 47.724 406.042C54.514 400.804 57.036 400.222 54.514 405.072Z" fill="#004CAB"/>
<path d="M148.604 375.002C144.53 377.912 145.112 386.254 149.38 387.612C151.708 388.388 151.902 388.194 149.768 385.672C148.41 383.926 147.828 381.21 148.604 379.464C150.35 375.002 156.946 375.584 158.886 380.628C159.662 382.956 161.02 383.926 161.602 382.762C163.154 380.434 157.722 372.48 154.424 372.48C153.066 372.48 150.544 373.644 148.604 375.002Z" fill="#004CAB"/>
<path d="M420.204 381.404C418.458 382.956 417.1 385.478 417.1 386.836C417.1 389.746 423.308 395.76 426.412 395.76C429.322 395.76 434.56 390.134 434.56 387.03C434.56 383.538 429.322 378.3 425.83 378.3C424.472 378.3 421.756 379.658 420.204 381.404ZM430.68 386.06C430.68 390.716 425.636 393.432 422.532 390.328C419.428 387.224 422.144 382.18 426.8 382.18C429.322 382.18 430.68 383.538 430.68 386.06Z" fill="#004CAB"/>
<path d="M157.722 392.074C152.29 395.566 151.708 396.536 153.842 399.834C156.17 403.52 159.08 404.878 159.08 401.968C159.08 401.192 158.11 399.446 156.752 398.088C155.006 396.342 155.2 395.76 157.528 395.76C159.274 395.76 161.214 396.924 161.796 398.088C162.572 399.446 162.572 398.67 162.184 396.148C161.602 393.432 162.378 391.88 164.124 391.88C165.676 391.88 166.84 392.656 166.84 393.82C166.84 394.79 167.81 395.76 168.78 395.76C170.138 395.76 170.138 394.596 168.78 391.88C166.258 387.03 165.482 387.03 157.722 392.074Z" fill="#004CAB"/>
<path d="M408.37 399.834C407.594 402.356 408.37 405.072 410.504 407.594C414.578 412.056 417.682 412.25 421.756 408.176C425.248 404.684 425.83 401.58 422.92 401.58C421.95 401.58 420.98 402.938 420.98 404.49C420.98 408.37 413.414 408.37 412.056 404.49C411.28 402.938 411.862 400.222 413.22 398.67C415.16 396.342 415.16 395.76 412.638 395.76C410.892 395.76 408.952 397.506 408.37 399.834Z" fill="#004CAB"/>
<path d="M169.556 404.296C168.974 405.848 168.974 407.982 169.556 409.146C170.332 410.116 169.944 411.474 168.974 412.25C168.004 412.832 166.258 411.668 165.094 409.922C163.542 407.012 163.154 407.012 162.96 409.34C162.96 411.086 163.93 413.414 165.094 414.578C168.78 418.264 172.66 415.16 172.66 408.758C172.66 403.132 172.854 402.938 175.57 406.624C178.674 410.31 178.674 410.31 178.092 406.43C177.316 401.774 171.108 400.222 169.556 404.296Z" fill="#004CAB"/>
<path d="M399.64 411.086C399.64 413.22 411.086 421.756 412.444 420.592C413.22 419.622 402.356 409.34 400.61 409.34C400.028 409.34 399.64 410.116 399.64 411.086Z" fill="#004CAB"/>
<path d="M180.226 415.548C180.032 416.906 180.032 419.622 180.226 421.368C180.808 425.248 177.316 426.024 175.958 422.338C175.57 421.174 174.6 420.592 173.824 421.174C173.242 421.756 173.824 423.89 175.376 425.83C177.704 429.128 178.48 429.128 181.196 426.994C183.136 425.248 183.912 422.92 183.136 420.592C182.166 417.294 182.554 416.906 186.434 418.07C190.508 419.428 190.702 419.234 188.374 416.324C185.27 412.638 180.42 412.25 180.226 415.548Z" fill="#004CAB"/>
<path d="M389.746 420.204C387.03 423.308 386.254 425.054 388 424.472C389.552 423.89 393.238 425.636 396.342 428.352C399.252 431.068 401.58 432.426 401.58 431.262C401.58 430.292 399.834 427.77 397.7 425.83C395.178 423.696 394.208 420.98 394.984 418.652C396.342 413.996 395.372 414.19 389.746 420.204Z" fill="#004CAB"/>
<path d="M189.538 428.352C187.598 430.292 186.24 432.814 186.24 433.978C186.24 436.5 192.642 442.32 195.552 442.32C198.462 442.32 203.7 436.694 203.7 433.59C203.7 430.292 198.462 424.86 195.164 424.86C193.806 424.86 191.284 426.412 189.538 428.352ZM199.82 432.62C199.82 437.276 194.776 439.992 191.672 436.888C188.568 433.784 191.284 428.74 195.94 428.74C198.462 428.74 199.82 430.098 199.82 432.62Z" fill="#004CAB"/>
<path d="M377.912 430.098C375.002 433.008 375.002 433.59 378.882 438.634C383.344 444.842 386.448 445.618 389.94 441.35C391.492 439.604 391.686 438.44 390.328 438.44C389.164 438.44 387.612 439.41 387.03 440.38C386.254 441.544 384.896 441.738 383.732 441.156C382.568 440.38 382.568 439.216 383.926 437.858C387.03 434.754 386.642 431.65 383.538 434.366C380.046 437.082 377.718 434.754 380.628 431.262C383.732 427.382 381.598 426.412 377.912 430.098Z" fill="#004CAB"/>
<path d="M207.386 441.738C203.118 450.662 202.924 451.244 206.222 448.334C209.132 446.006 209.714 446.394 211.266 450.274C212.818 454.154 213.206 454.348 213.206 451.244C213.4 449.304 214.952 446.588 216.698 445.23C219.608 443.096 219.608 442.32 217.474 439.604C213.594 435.142 210.49 435.724 207.386 441.738Z" fill="#004CAB"/>
<path d="M366.66 440.962C366.66 446.588 365.496 447.17 360.84 444.454C355.796 441.156 355.214 444.26 359.288 451.244C363.556 458.422 366.66 459.198 362.78 452.02C360.84 448.14 360.84 447.946 364.332 448.916C367.436 449.886 368.406 449.11 369.182 444.842C369.764 441.932 369.376 438.634 368.406 437.47C367.436 436.5 366.66 437.664 366.66 440.962Z" fill="#004CAB"/>
<path d="M224.07 450.08C222.324 453.378 221.354 457.258 221.742 458.422C222.13 459.78 224.07 457.258 225.816 453.184C229.696 443.872 228.532 441.544 224.07 450.08Z" fill="#004CAB"/>
<path d="M342.41 450.08C340.858 452.602 344.932 457.84 347.648 457.258C351.334 456.482 351.528 461.332 347.842 462.496C345.708 463.078 346.096 463.272 349.2 463.078C355.602 462.496 355.99 455.124 349.782 454.348C344.932 453.572 343.962 451.05 347.842 449.498C349.2 448.916 349.006 448.334 346.872 448.334C345.126 448.14 342.992 449.11 342.41 450.08Z" fill="#004CAB"/>
<path d="M234.934 452.796C233.576 454.348 232.8 457.646 233.188 460.168C233.576 463.66 234.934 464.63 239.396 464.63C246.38 464.63 250.26 459.392 247.156 454.348C244.44 450.08 237.844 449.11 234.934 452.796ZM244.246 455.512C245.604 458.034 245.41 459.974 244.052 461.332C238.62 466.764 231.83 460.75 236.68 454.93C239.784 451.05 241.918 451.244 244.246 455.512Z" fill="#004CAB"/>
<path d="M255.886 457.064C254.14 459.198 254.334 460.556 256.856 463.272C260.542 467.54 258.602 470.45 254.528 466.958C252.006 465.018 251.812 465.212 252.588 467.54C253.752 471.42 261.124 472.39 262.482 468.704C263.064 467.152 262.288 464.824 260.736 463.66C257.05 460.556 257.244 457.064 260.93 458.616C262.482 459.198 263.84 458.81 263.84 458.034C263.84 454.93 258.408 454.154 255.886 457.064Z" fill="#004CAB"/>
<path d="M324.368 456.288C318.742 461.914 323.786 470.256 332.128 469.092C335.814 468.704 336.59 467.346 336.59 461.72C336.59 455.9 335.814 454.93 331.74 454.348C329.024 453.96 325.726 454.93 324.368 456.288ZM334.456 460.362C336.008 462.884 335.814 464.242 333.68 465.6C332.128 466.57 329.994 467.54 329.218 467.54C326.89 467.54 325.338 462.108 326.696 458.616C328.054 454.93 331.546 455.706 334.456 460.362Z" fill="#004CAB"/>
<path d="M309.042 458.034C302.252 460.556 302.834 470.838 309.624 472.584C312.534 473.36 315.444 472.972 316.802 471.42C318.548 469.48 318.16 469.286 315.056 470.256C310.206 471.808 305.938 467.54 307.684 463.078C308.266 461.332 310.594 459.78 312.922 459.392C315.25 459.004 316.414 458.228 315.25 457.646C314.28 456.87 311.37 457.064 309.042 458.034Z" fill="#004CAB"/>
<path d="M279.36 466.57C279.36 474.524 279.748 475.3 284.21 475.3C286.926 475.3 289.06 474.33 289.06 473.36C289.06 472.196 287.314 471.42 285.18 471.42C279.942 471.42 280.33 467.928 285.762 466.958L290.03 466.182L285.762 465.794C280.33 465.6 279.748 461.72 285.18 461.72C287.314 461.72 289.06 460.75 289.06 459.78C289.06 458.616 286.926 457.84 284.21 457.84C279.748 457.84 279.36 458.616 279.36 466.57Z" fill="#004CAB"/>
</svg>
