<svg width="86" height="51" viewBox="0 0 86 51" fill="none" xmlns="http://www.w3.org/2000/svg">
<path d="M24.1697 17.7447C21.013 18.8697 18.5409 22.3697 18.5409 25.6614C18.5789 28.8281 20.8989 32.3281 23.7133 33.4114C26.2615 34.3697 30.2169 33.3281 31.9283 31.2447C35.009 27.5364 33.9441 20.7031 29.9126 18.4114C28.6195 17.6614 25.4628 17.3281 24.1697 17.7447ZM28.4293 21.3281C30.4451 22.4531 31.2818 25.5364 30.2549 27.9947C30.0267 28.5781 29.228 29.4531 28.5434 29.9114C25.0825 32.2864 20.6707 28.4947 21.9638 24.2447C22.8766 21.2031 25.8431 19.8697 28.4293 21.3281Z" fill="#004CAB"/>
<path d="M64.2559 18.0365C62.6966 19.2031 63.6474 21.9531 65.6251 21.9531C67.4126 21.9531 68.2493 19.4115 66.9182 18.0781C66.0435 17.2031 65.3589 17.2031 64.2559 18.0365Z" fill="#004CAB"/>
<path d="M42.007 23.0781C42.083 25.7865 42.1211 28.4948 42.1211 29.1198C42.1211 30.6198 44.0227 32.9115 45.6581 33.4948C49.005 34.6198 52.7702 32.9115 53.4928 29.9948C53.721 29.1198 53.9112 26.1198 53.9112 23.2865V18.2031H52.3899H50.8685V23.4115C50.8685 28.4115 50.8305 28.7031 49.9177 29.6615C48.7768 30.9531 46.9892 31.0365 45.9243 29.8698C45.2397 29.1198 45.1637 28.4948 45.1637 23.6198V18.2031H43.5663H41.9309L42.007 23.0781Z" fill="#004CAB"/>
<path d="M64.0278 28.2865L64.0658 33.8281L65.6632 33.9531L67.2225 34.0781V28.4531V22.7865H65.6251H63.9897L64.0278 28.2865Z" fill="#004CAB"/>
<path d="M36.9106 31.8282C36.3021 32.0782 36.2641 33.4532 36.8346 33.8698C37.0628 33.9949 37.5192 33.8282 37.8615 33.4532C38.3939 32.8698 38.3939 32.7032 37.9375 32.2032C37.6333 31.9115 37.1388 31.7032 36.9106 31.8282Z" fill="#004CAB"/>
<path d="M58.2089 31.8282C57.6003 32.0782 57.5623 33.4532 58.1328 33.8698C58.361 33.9949 58.8174 33.8282 59.1597 33.4532C59.6921 32.8698 59.6921 32.7032 59.2357 32.2032C58.9315 31.9115 58.4371 31.7032 58.2089 31.8282Z" fill="#004CAB"/>
</svg>
