<svg width="32" height="32" viewBox="0 0 32 32" fill="none" xmlns="http://www.w3.org/2000/svg">
<path d="M22.6667 8.00008H29.3334V10.6667H26.6667V28.0001C26.6667 28.7365 26.0698 29.3334 25.3334 29.3334H6.66669C5.93031 29.3334 5.33335 28.7365 5.33335 28.0001V10.6667H2.66669V8.00008H9.33335V4.00008C9.33335 3.26371 9.93031 2.66675 10.6667 2.66675H21.3334C22.0698 2.66675 22.6667 3.26371 22.6667 4.00008V8.00008ZM24 10.6667H8.00002V26.6667H24V10.6667ZM12 14.6667H14.6667V22.6667H12V14.6667ZM17.3334 14.6667H20V22.6667H17.3334V14.6667ZM12 5.33341V8.00008H20V5.33341H12Z" fill="black"/>
</svg>
